HIERARCHY
ROOT Hips
{
	OFFSET 53.007000 -13.534315 93.929802
	CHANNELS 6 Xposition Yposition Zposition Xrotation Yrotation Zrotation
	JOINT spine
	{
		OFFSET 0.000000 -0.448574 7.800591
		CHANNELS 3 Xrotation Yrotation Zrotation
		JOINT spine1
		{
			OFFSET 0.000000 -0.000002 10.136398
			CHANNELS 3 Xrotation Yrotation Zrotation
			JOINT spine2
			{
				OFFSET 0.000000 -0.000002 9.712509
				CHANNELS 3 Xrotation Yrotation Zrotation
				JOINT Neck
				{
					OFFSET 0.000000 -1.188874 24.936096
					CHANNELS 3 Xrotation Yrotation Zrotation
					JOINT Head
					{
						OFFSET 0.000000 -0.000001 7.533844
						CHANNELS 3 Xrotation Yrotation Zrotation
						End Site
						{
							OFFSET 0.000000 6.014017 18.236099
						}
					}
				}
				JOINT RightShoulder
				{
					OFFSET -4.089649 0.569455 10.488800
					CHANNELS 3 Xrotation Yrotation Zrotation
					JOINT RightArm
					{
						OFFSET 0.000000 -0.000002 13.757004
						CHANNELS 3 Xrotation Yrotation Zrotation
						JOINT RightArmRoll
						{
							OFFSET 0.000000 -0.000001 6.944778
							CHANNELS 3 Xrotation Yrotation Zrotation
							JOINT RightForeArm
							{
								OFFSET 0.000000 -0.000004 20.227707
								CHANNELS 3 Xrotation Yrotation Zrotation
								JOINT RightForeArmRoll
								{
									OFFSET 0.000000 -0.000001 7.793121
									CHANNELS 3 Xrotation Yrotation Zrotation
									JOINT RightHand
									{
										OFFSET 0.000000 -0.000003 15.639099
										CHANNELS 3 Xrotation Yrotation Zrotation
										End Site
										{
											OFFSET 0.000000 0.000000 0.100006
										}
									}
								}
							}
						}
					}
				}
				JOINT LeftShoulder
				{
					OFFSET 4.089649 0.569455 10.488800
					CHANNELS 3 Xrotation Yrotation Zrotation
					JOINT LeftArm
					{
						OFFSET 0.000000 -0.000002 13.757004
						CHANNELS 3 Xrotation Yrotation Zrotation
						JOINT LeftArmRoll
						{
							OFFSET 0.000000 -0.000001 6.944778
							CHANNELS 3 Xrotation Yrotation Zrotation
							JOINT LeftForeArm
							{
								OFFSET 0.000000 -0.000004 20.227707
								CHANNELS 3 Xrotation Yrotation Zrotation
								JOINT LeftForeArmRoll
								{
									OFFSET 0.000000 -0.000001 7.793121
									CHANNELS 3 Xrotation Yrotation Zrotation
									JOINT LeftHand
									{
										OFFSET 0.000000 -0.000003 15.639099
										CHANNELS 3 Xrotation Yrotation Zrotation
										End Site
										{
											OFFSET 0.000000 0.000000 0.100006
										}
									}
								}
							}
						}
					}
				}
			}
		}
	}
	JOINT RightUpLeg
	{
		OFFSET -6.914158 1.063580 -1.267883
		CHANNELS 3 Xrotation Yrotation Zrotation
		JOINT RightUpLegRoll
		{
			OFFSET 0.000000 -0.000003 18.337799
			CHANNELS 3 Xrotation Yrotation Zrotation
			JOINT RightLeg
			{
				OFFSET 0.000000 0.000004 -22.708504
				CHANNELS 3 Xrotation Yrotation Zrotation
				JOINT RightLegRoll
				{
					OFFSET 0.000000 -0.000004 22.782799
					CHANNELS 3 Xrotation Yrotation Zrotation
					JOINT RightFoot
					{
						OFFSET 0.000000 -0.000003 18.962898
						CHANNELS 3 Xrotation Yrotation Zrotation
						JOINT RightToeBase
						{
							OFFSET 0.000000 -0.000003 15.852005
							CHANNELS 3 Xrotation Yrotation Zrotation
							End Site
							{
								OFFSET 0.006718 0.884891 7.677017
							}
						}
					}
				}
			}
		}
	}
	JOINT LeftUpLeg
	{
		OFFSET 6.914158 1.063580 -1.267883
		CHANNELS 3 Xrotation Yrotation Zrotation
		JOINT LeftUpLegRoll
		{
			OFFSET 0.000000 -0.000003 18.337898
			CHANNELS 3 Xrotation Yrotation Zrotation
			JOINT LeftLeg
			{
				OFFSET 0.000000 -0.000004 22.708405
				CHANNELS 3 Xrotation Yrotation Zrotation
				JOINT LeftLegRoll
				{
					OFFSET 0.000000 -0.000004 22.993408
					CHANNELS 3 Xrotation Yrotation Zrotation
					JOINT LeftFoot
					{
						OFFSET 0.000000 -0.000003 18.752197
						CHANNELS 3 Xrotation Yrotation Zrotation
						JOINT LeftToeBase
						{
							OFFSET 0.000000 -0.000003 15.852005
							CHANNELS 3 Xrotation Yrotation Zrotation
							End Site
							{
								OFFSET -0.030113 0.884891 7.677017
							}
						}
					}
				}
			}
		}
	}
}
MOTION
Frames: 6
Frame Time: 0.041667
54.291199 -12.124415 93.928009 -5.473834 0.205609 -0.831218 -0.852864 0.105883 0.331892 2.302056 0.216628 0.671553 3.947091 0.224688 0.669038 21.479700 5.226194 -1.794280 -17.727095 -6.461061 -1.959699 -19.500069 -77.645864 -22.965671 -74.103960 -101.392847 -62.108461 -0.000001 0.000001 0.000001 15.845243 -12.397344 0.807418 -0.000004 0.000003 -3.000001 -5.000188 -7.998716 0.000180 2.385196 67.751003 -1.587530 -9.542386 106.220869 -3.837168 0.000000 -0.000000 -0.000000 16.927143 4.668416 0.484423 0.000005 -0.000002 3.000000 -5.000218 7.999450 -0.000084 -0.778907 -173.931560 0.692068 -179.999991 0.000005 -0.883999 167.430790 0.992629 -0.959697 -0.000004 -0.000002 0.007489 70.251501 5.289655 6.316480 25.458779 -7.355624 0.002830 2.033602 178.482952 5.890049 -0.000005 -0.000004 -1.432250 -12.368429 4.309912 0.731328 -0.000007 0.000001 -0.256593 73.697365 -7.324945 -0.513889 25.456953 7.355613 -0.000001 
54.295101 -12.129216 93.929405 -5.480355 0.202623 -0.828080 -0.851005 0.105908 0.332375 2.304976 0.215419 0.671935 3.950002 0.223481 0.669436 21.496832 5.233082 -1.798930 -17.720041 -6.458109 -1.962751 -19.496198 -77.637285 -22.961580 -73.954345 -101.337078 -61.865333 0.000000 0.000001 -0.000001 15.893036 -12.341401 0.799034 -0.000003 0.000002 -3.000001 -5.000189 -7.998717 0.000180 2.360733 67.751952 -1.560079 -9.616012 106.225213 -3.848623 0.000000 -0.000000 0.000000 16.835289 4.606127 0.492488 0.000002 -0.000003 3.000001 -5.000220 7.999451 -0.000084 -0.769781 -173.928541 0.693371 -179.999991 0.000005 -0.883999 167.432580 0.995568 -0.960071 -0.000004 -0.000003 0.007488 70.252006 5.289237 6.319783 25.458779 -7.355622 0.002830 2.045771 178.485971 5.890145 -0.000005 -0.000004 -1.432250 -12.359031 4.311747 0.730756 -0.000006 0.000001 -0.256593 73.693923 -7.325336 -0.511772 25.456953 7.355615 -0.000001 
54.297100 -12.124319 93.932602 -5.487072 0.199591 -0.824959 -0.849064 0.105978 0.332894 2.308016 0.214230 0.672344 3.953041 0.222294 0.669866 21.513351 5.239878 -1.803747 -17.712171 -6.454927 -1.965934 -19.492335 -77.628809 -22.957507 -73.799730 -101.280750 -61.620888 -0.000001 0.000001 0.000000 15.943299 -12.287259 0.791114 -0.000002 0.000002 -3.000002 -5.000191 -7.998715 0.000180 2.334168 67.752444 -1.530333 -9.689989 106.229604 -3.857140 -0.000000 -0.000000 -0.000001 16.744117 4.545648 0.500050 0.000003 -0.000003 3.000000 -5.000220 7.999451 -0.000084 -0.760375 -173.925522 0.694686 -179.999991 0.000005 -0.883999 167.434451 0.999482 -0.960230 -0.000004 -0.000003 0.007489 70.252525 5.288815 6.323085 25.458779 -7.355622 0.002830 2.058320 178.487965 5.890222 -0.000005 -0.000004 -1.432250 -12.349432 4.313546 0.730163 -0.000007 0.000001 -0.256594 73.690447 -7.325729 -0.509656 25.456950 7.355615 -0.000002 
54.299900 -12.124617 93.932007 -5.493941 0.196528 -0.821849 -0.847052 0.106078 0.333436 2.311155 0.213055 0.672772 3.956181 0.221121 0.670319 21.529574 5.246608 -1.808693 -17.703895 -6.451578 -1.969224 -19.488401 -77.620339 -22.953358 -73.640204 -101.224073 -61.374038 0.000001 -0.000000 0.000000 15.995378 -12.234471 0.783536 -0.000005 0.000003 -3.000001 -5.000187 -7.998715 0.000181 2.306138 67.752628 -1.498989 -9.764143 106.234023 -3.863687 -0.000000 0.000000 0.000000 16.653514 4.486436 0.507199 0.000003 -0.000003 3.000000 -5.000220 7.999451 -0.000084 -0.750768 -173.922503 0.696008 -179.999991 0.000005 -0.883999 167.436446 1.002411 -0.959614 -0.000004 -0.000003 0.007489 70.253031 5.288364 6.326581 25.458781 -7.355624 0.002830 2.071150 178.490984 5.890386 -0.000005 -0.000004 -1.432250 -12.339633 4.315329 0.729553 -0.000006 0.000001 -0.256594 73.686990 -7.326092 -0.507534 25.456952 7.355613 -0.000001 
54.304001 -12.137316 93.924507 -5.500894 0.193446 -0.818747 -0.845012 0.106196 0.333994 2.314346 0.211887 0.673211 3.959370 0.219956 0.670784 21.545594 5.253297 -1.813712 -17.695410 -6.448131 -1.972580 -19.484390 -77.611877 -22.949106 -73.477201 -101.167287 -61.125180 0.000000 0.000000 -0.000002 16.048318 -12.182418 0.776064 -0.000003 0.000002 -3.000001 -5.000189 -7.998716 0.000181 2.277269 67.752642 -1.466729 -9.837770 106.239467 -3.869692 -0.000000 -0.000000 -0.000000 16.563158 4.427947 0.514044 0.000002 -0.000003 3.000001 -5.000220 7.999450 -0.000084 -0.741054 -173.919511 0.697336 -179.999991 0.000005 -0.883999 167.438427 1.006325 -0.959776 -0.000005 -0.000003 0.007488 70.253441 5.287935 6.329987 25.458779 -7.355621 0.002829 2.084108 178.494003 5.890553 -0.000005 -0.000004 -1.432250 -12.329833 4.317103 0.728940 -0.000005 0.000001 -0.256594 73.683405 -7.326468 -0.505421 25.456953 7.355613 -0.000001 
54.305698 -12.133919 93.926407 -5.507859 0.190359 -0.815647 -0.842965 0.106319 0.334555 2.317546 0.210720 0.673653 3.962570 0.218793 0.671253 21.561510 5.259969 -1.818743 -17.686729 -6.444673 -1.975938 -19.480234 -77.603325 -22.944731 -73.311248 -101.110453 -60.873692 0.000000 0.000000 -0.000000 16.101669 -12.130551 0.768579 -0.000004 0.000002 -3.000001 -5.000188 -7.998717 0.000181 2.248193 67.752642 -1.434243 -9.911350 106.244931 -3.875544 -0.000000 0.000000 0.000000 16.472949 4.369629 0.520675 0.000002 -0.000003 3.000001 -5.000219 7.999451 -0.000082 -0.731312 -173.917489 0.698679 -179.999991 0.000005 -0.883999 167.440421 1.009266 -0.960168 -0.000005 -0.000002 0.007489 70.253946 5.287484 6.333486 25.458781 -7.355622 0.002829 2.097118 178.496995 5.890721 -0.000005 -0.000004 -1.432250 -12.319933 4.318867 0.728319 -0.000007 0.000001 -0.256594 73.679921 -7.326801 -0.503297 25.456953 7.355613 -0.000001 
